<?xml version="1.0" encoding="utf-8" ?>
<svg baseProfile="full" height="200mm" version="1.1" viewBox="0,0,200,200" width="200mm" xmlns="http://www.w3.org/2000/svg" xmlns:ev="http://www.w3.org/2001/xml-events" xmlns:xlink="http://www.w3.org/1999/xlink"><defs /><rect fill="#1a1a1a" height="200" width="200" x="0" y="0" /><text alignment-baseline="middle" fill="#e1ed5e" style="dominant-baseline: central; font-size:9.0px; font-family:Arial;" text-anchor="middle" x="100.0" y="100.0">2020</text><line stroke="#e1ed5e" stroke-width="0.3" x1="100.0" x2="100.0" y1="15.0" y2="10.0" /><path d="M 100.0 14.0 a86.0,86.0 0 0,1 42.35913384403234,11.155469271406648" fill="none" id="id49" stroke="none" /><text fill="#e1ed5e" style="font-size:6.75px; font-family:Arial;" text-anchor="middle"><textPath startOffset="22.145653131862478" xlink:href="#id49">January</textPath></text><path d="M 100.0 79.0 l 0.0 -53.590014860729255 a74.59001486072926,74.59001486072926 0 0,0 1.2804367915078017,0.010991009871805417 l -0.9199438666589468 53.58211824905189" fill="#33ff55" stroke="none" /><path d="M 102.51750503828377 79.15144685158666 l 4.519775383588378 -37.43022392037452 a58.70212238385882,58.70212238385882 0 0,0 0.999395745443358,0.12939178784751282 l -5.161648950922528 37.347120536326614" fill="#ff5908" stroke="none" /><line stroke="#e1ed5e" stroke-width="0.3" x1="143.13028292997686" x2="145.6673583964461" y1="26.7553504044142" y2="22.446841604673864" /><path d="M 143.63769802327073 25.89364864446614 a86.0,86.0 0 0,1 29.32050498858742,28.57503671076993" fill="none" id="id50" stroke="none" /><text fill="#e1ed5e" style="font-size:6.75px; font-family:Arial;" text-anchor="middle"><textPath startOffset="20.669276256404974" xlink:href="#id50">February</textPath></text><line stroke="#e1ed5e" stroke-width="0.3" x1="172.87174338648825" x2="177.1583165268699" y1="56.24261187166439" y2="53.66864786411523" /><path d="M 173.72905801456457 55.72781907015455 a86.0,86.0 0 0,1 12.242430191666344,42.057860355516425" fill="none" id="id51" stroke="none" /><text fill="#e1ed5e" style="font-size:6.75px; font-family:Arial;" text-anchor="middle"><textPath startOffset="22.145653131862474" xlink:href="#id51">March</textPath></text><line stroke="#e1ed5e" stroke-width="0.3" x1="184.99686870605535" x2="189.99668451229388" y1="99.2704041080226" y2="99.22748670261217" /><path d="M 185.99683186730306 99.26182062694052 a86.0,86.0 0 0,1 -10.086455211305974,41.156179273409016" fill="none" id="id52" stroke="none" /><text fill="#e1ed5e" style="font-size:6.75px; font-family:Arial;" text-anchor="middle"><textPath startOffset="21.40746469413373" xlink:href="#id52">April</textPath></text><path d="M 120.7213421655516 103.40968896794604 l 40.864796251141414 6.7242866722465635 a62.41434055852941,62.41434055852941 0 0,0 -0.18303802639994646,1.055714695812227 l -40.74334340724923 -7.424794400979379" fill="#ffc612" stroke="none" /><line stroke="#e1ed5e" stroke-width="0.3" x1="174.33088141563837" x2="178.70328620479359" y1="141.23008692659167" y2="143.65538615756765" /><path d="M 175.20536237346943 141.71514677278685 a86.0,86.0 0 0,1 -30.301960400862466,31.631185727798858" fill="none" id="id53" stroke="none" /><text fill="#e1ed5e" style="font-size:6.75px; font-family:Arial;" text-anchor="middle"><textPath startOffset="22.145653131862474" xlink:href="#id53">May</textPath></text><path d="M 117.423217284605 111.72311816256416 l 39.92251974627926 26.861652970744256 a69.1181460907707,69.1181460907707 0 0,0 -0.6708089307427196,0.9787302773214013 l -39.45552107872122 -27.5430179831357" fill="#8aff24" stroke="none" /><path d="M 113.03279911837588 116.46651593811092 l 37.51901809440723 47.40405371266237 a81.45511580636858,81.45511580636858 0 0,0 -1.10387218652753,0.8583776889550416 l -36.69973596324447 -48.041132453238205" fill="#46fff7" stroke="none" /><path d="M 112.16784306229584 117.11559508785304 l 30.570657813845333 43.00145868353785 a73.7606915049759,73.7606915049759 0 0,0 -1.0382867851089967,0.7248048134214701 l -29.827975937562577 -43.51990831276444" fill="#31ff3f" stroke="none" /><path d="M 111.5731344415666 117.5232005979908 l 29.033842358081188 43.96093783753103 a73.6832806270564,73.6832806270564 0 0,0 -1.0614405262915856,0.6880129251815873 l -28.274916199532594 -44.45286460441651" fill="#31ff3d" stroke="none" /><line stroke="#e1ed5e" stroke-width="0.3" x1="143.1302829299769" x2="145.66735839644613" y1="173.24464959558577" y2="177.55315839532614" /><path d="M 143.63769802327073 174.10635135553383 a86.0,86.0 0 0,1 -40.68552437913181,11.842963189579606" fill="none" id="id54" stroke="none" /><text fill="#e1ed5e" style="font-size:6.75px; font-family:Arial;" text-anchor="middle"><textPath startOffset="21.407464694133747" xlink:href="#id54">June</textPath></text><path d="M 110.34350942703117 118.27599006163325 l 25.88366000117255 45.733947097672875 a73.55052589831087,73.55052589831087 0 0,0 -1.10415384541039,0.6124555253426991 l -25.09476196760607 -46.17153553844872" fill="#30ff3a" stroke="none" /><path d="M 109.71004243097381 118.62028667847754 l 23.859705552048617 45.75413141615404 a72.60160938068844,72.60160938068844 0 0,0 -1.1100190681868038,0.5667836454151757 l -23.07075926214823 -46.15697301324205" fill="#3bff2e" stroke="none" /><path d="M 108.07796709384702 119.3841803445677 l 19.46648843740027 46.712485723472355 a71.60632860175738,71.60632860175738 0 0,0 -1.138695904147058,0.46309771112806813 l -18.66173807206277 -47.03977069117972" fill="#51ff2b" stroke="none" /><path d="M 106.38641147887787 120.00534299687104 l 19.159234436633636 60.016028990613094 a84.0,84.0 0 0,0 -1.3774374685135027,0.42673364877342257 l -18.126156335248506 -60.33607922719317" fill="#4dd2ff" stroke="none" /><line stroke="#e1ed5e" stroke-width="0.3" x1="101.45913802915013" x2="101.54496967792366" y1="184.9874750549273" y2="189.98673829345242" /><path d="M 101.47630435890484 185.9873277026323 a86.0,86.0 0 0,1 -42.54439059252881,-10.42667462771756" fill="none" id="id55" stroke="none" /><text fill="#e1ed5e" style="font-size:6.75px; font-family:Arial;" text-anchor="middle"><textPath startOffset="22.145653131862474" xlink:href="#id55">July</textPath></text><path d="M 97.48249496171623 120.84855314841334 l -5.268904787117561 43.63409002868813 a64.95105425683633,64.95105425683633 0 0,0 -1.1057829708758733,-0.1431657441262077 l 6.017165579884229 -43.53721268836152" fill="#f3ff19" stroke="none" /><path d="M 96.76829788921471 120.74984581791261 l -5.361893967218851 34.42720563274676 a55.84225013679697,55.84225013679697 0 0,0 -0.9459211739903249,-0.15565096921488272 l 5.9520926442622395 -34.330088665036214" fill="#ff0000" stroke="none" /><path d="M 93.61358852112213 120.00534299687104 l -13.852543258958525 43.39289445896325 a66.5503704075833,66.5503704075833 0 0,0 -1.0853327936056072,-0.35677044670666186 l 14.595398790211874 -43.14870309085457" fill="#caff1d" stroke="none" /><path d="M 91.26138138417905 119.09545874513695 l -18.271433584515975 39.92637985092533 a64.90855375930474,64.90855375930474 0 0,0 -1.0092083508901013,-0.4723604661335245 l 18.95413064927757 -39.60684315322128" fill="#f4ff19" stroke="none" /><path d="M 89.97174638481275 118.45085714620012 l -21.008540020164524 38.65334739592601 a64.99363611579514,64.99363611579514 0 0,0 -0.9756962627796117,-0.5412022696651396 l 21.668980471100237 -38.287012210827726" fill="#f2ff19" stroke="none" /><line stroke="#e1ed5e" stroke-width="0.3" x1="58.13341422392154" x2="55.67067388415222" y1="173.97424548756322" y2="178.32567169271397" /><path d="M 57.64086615596768 174.84453072859336 a86.0,86.0 0 0,1 -31.369924170532247,-30.572349798747897" fill="none" id="id56" stroke="none" /><text fill="#e1ed5e" style="font-size:6.75px; font-family:Arial;" text-anchor="middle"><textPath startOffset="22.145653131862474" xlink:href="#id56">August</textPath></text><path d="M 87.83215693770417 117.11559508785305 l -32.005379353346825 45.01957420394761 a76.23682077252803,76.23682077252803 0 0,0 -1.060123779728362,-0.7674478621086805 l 32.77348414344914 -44.46352557046587" fill="#38ff7f" stroke="none" /><path d="M 85.86807049272751 115.53346607816431 l -29.308223554948082 32.214871731971186 a64.5519222153761,64.5519222153761 0 0,0 -0.8132627058402405,-0.7527438192185054 l 29.85691603210229 -31.7070101666203" fill="#feff18" stroke="none" /><line stroke="#e1ed5e" stroke-width="0.3" x1="26.387840678322732" x2="22.057713659400534" y1="142.50000000000003" y2="145.00000000000006" /><path d="M 25.521815274538284 143.00000000000003 a86.0,86.0 0 0,1 -11.493303480769212,-40.785679425670985" fill="none" id="id57" stroke="none" /><text fill="#e1ed5e" style="font-size:6.75px; font-family:Arial;" text-anchor="middle"><textPath startOffset="21.40746469413373" xlink:href="#id57">September</textPath></text><line stroke="#e1ed5e" stroke-width="0.3" x1="15.003131293944662" x2="10.003315487706104" y1="100.72959589197737" y2="100.7725132973878" /><path d="M 14.003168132696942 100.73817937305945 a86.0,86.0 0 0,1 10.791469493833604,-42.45332614584628" fill="none" id="id58" stroke="none" /><text fill="#e1ed5e" style="font-size:6.75px; font-family:Arial;" text-anchor="middle"><textPath startOffset="22.145653131862435" xlink:href="#id58">October</textPath></text><line stroke="#e1ed5e" stroke-width="0.3" x1="26.387840678322718" x2="22.05771365940052" y1="57.49999999999999" y2="54.99999999999999" /><path d="M 25.521815274538284 56.99999999999999 a86.0,86.0 0 0,1 29.574782752854787,-30.34633250058573" fill="none" id="id59" stroke="none" /><text fill="#e1ed5e" style="font-size:6.75px; font-family:Arial;" text-anchor="middle"><textPath startOffset="21.40746469413373" xlink:href="#id59">November</textPath></text><path d="M 86.96720088162412 83.53348406188908 l -27.682376478079362 -34.975778368161144 a65.60514589072488,65.60514589072488 0 0,0 0.8890748619644879,-0.691349990184814 l 27.07789167147963 35.44582940996676" fill="#e2ff1b" stroke="none" /><path d="M 87.83215693770416 82.88440491214696 l -26.344954075294353 -37.057477175888536 a66.46771623768747,66.46771623768747 0 0,0 0.9356277713490303,-0.6531408489162176 l 25.70493121277156 37.50426284060988" fill="#ccff1d" stroke="none" /><path d="M 88.4268655584334 82.4767994020092 l -27.852727237929372 -42.1725790066335 a71.5400913598426,71.5400913598426 0 0,0 1.0305669288570183,-0.668001032328719 l 27.124674676815328 42.644493880666126" fill="#52ff2b" stroke="none" /><line stroke="#e1ed5e" stroke-width="0.3" x1="56.869717070023135" x2="54.33264160355391" y1="26.7553504044142" y2="22.446841604673864" /><path d="M 56.362301976729285 25.89364864446614 a86.0,86.0 0 0,1 42.16139366436587,-11.88097634709845" fill="none" id="id60" stroke="none" /><text fill="#e1ed5e" style="font-size:6.75px; font-family:Arial;" text-anchor="middle"><textPath startOffset="22.145653131862474" xlink:href="#id60">December</textPath></text></svg>