<?xml version="1.0" encoding="utf-8" ?>
<svg baseProfile="full" height="200mm" version="1.1" viewBox="0,0,200,200" width="200mm" xmlns="http://www.w3.org/2000/svg" xmlns:ev="http://www.w3.org/2001/xml-events" xmlns:xlink="http://www.w3.org/1999/xlink"><defs /><rect fill="#1a1a1a" height="200" width="200" x="0" y="0" /><text alignment-baseline="middle" fill="#e1ed5e" style="dominant-baseline: central; font-size:9.0px; font-family:Arial;" text-anchor="middle" x="100.0" y="100.0">2022</text><line stroke="#e1ed5e" stroke-width="0.3" x1="100.0" x2="100.0" y1="15.0" y2="10.0" /><path d="M 100.0 14.0 a86.0,86.0 0 0,1 42.46469731375804,11.215312516191453" fill="none" id="id73" stroke="none" /><text fill="#e1ed5e" style="font-size:6.75px; font-family:Arial;" text-anchor="middle"><textPath startOffset="22.20632615414155" xlink:href="#id73">January</textPath></text><line stroke="#e1ed5e" stroke-width="0.3" x1="143.23703022742887" x2="145.7803849466894" y1="26.81831364943548" y2="22.513508569990506" /><path d="M 143.74570117128098 25.957352633546492 a86.0,86.0 0 0,1 28.547481713284135,27.462654790039103" fill="none" id="id74" stroke="none" /><text fill="#e1ed5e" style="font-size:6.75px; font-family:Arial;" text-anchor="middle"><textPath startOffset="19.985693538727396" xlink:href="#id74">February</textPath></text><line stroke="#e1ed5e" stroke-width="0.3" x1="172.23445277983987" x2="176.4835382374775" y1="55.19839476539836" y2="52.563006222186495" /><path d="M 173.08426987136738 54.67131705675599 a86.0,86.0 0 0,1 12.851231095245387,41.99856678651699" fill="none" id="id75" stroke="none" /><text fill="#e1ed5e" style="font-size:6.75px; font-family:Arial;" text-anchor="middle"><textPath startOffset="22.20632615414155" xlink:href="#id75">March</textPath></text><path d="M 118.03404312379186 89.2402003453031 l 27.2478321775174 -16.257098491025793 a52.729128726157384,52.729128726157384 0 0,0 0.4583424915508945,0.7834558919620346 l -27.52363434353862 15.785663186709863" fill="#ff2003" stroke="none" /><path d="M 118.3937258080291 89.86733742301442 l 26.76343228293087 -14.743333218904779 a51.5556407552957,51.5556407552957 0 0,0 0.42150885510889047,0.7809918924161754 l -27.013249237258226 14.280460343156145" fill="#ff0000" stroke="none" /><path d="M 119.85752413597 93.16781622104841 l 40.64451160492814 -13.984158900635013 a63.98293875203681,63.98293875203681 0 0,0 0.34935509094017264,1.0445272551558291 l -40.87920398964008 13.282458542556869" fill="#c8ff1d" stroke="none" /><path d="M 120.08093135843002 93.85539295169968 l 34.80463798626511 -10.649945466506773 a57.39758458736701,57.39758458736701 0 0,0 0.2809587245530274,0.9472531471291289 l -34.982802607929834 10.049262932631114" fill="#ff9b0e" stroke="none" /><path d="M 120.37134235888165 94.90015583598534 l 32.90890483241554 -8.23854821626597 a54.92447043036518,54.92447043036518 0 0,0 0.22170445502568964,0.9191080977388847 l -33.04584208770204 7.670854886867679" fill="#ff5b08" stroke="none" /><path d="M 120.53481517161879 95.60439243477599 l 32.82723017067466 -7.026877041630202 a54.570880858813375,54.570880858813375 0 0,0 0.18871313288123076,0.9202322560339008 l -32.94332259947089 6.460769129432889" fill="#ff5207" stroke="none" /><path d="M 120.91429891909075 98.10471618934814 l 39.8841072840247 -3.6143550940984848 a61.04754145499856,61.04754145499856 0 0,0 0.08583143680998215,1.0473609321389419 l -39.94041320465418 2.927280244751774" fill="#fff417" stroke="none" /><path d="M 120.96714384426684 98.82574320788733 l 39.05774480641983 -2.1874139112219884 a60.118949487204056,60.118949487204056 0 0,0 0.04897230011994042,1.0337278543486803 l -39.089610714773265 1.514774950250308" fill="#ffde14" stroke="none" /><line stroke="#e1ed5e" stroke-width="0.3" x1="184.98032266829074" x2="189.97916517819016" y1="98.17113171792111" y2="98.06355123074" /><path d="M 185.9800911702706 98.14961562048488 a86.0,86.0 0 0,1 -9.607161424134198,41.387399972396054" fill="none" id="id76" stroke="none" /><text fill="#e1ed5e" style="font-size:6.75px; font-family:Arial;" text-anchor="middle"><textPath startOffset="21.466115282336823" xlink:href="#id76">April</textPath></text><path d="M 120.99513854157772 99.54816195383933 l 42.15193810710251 -0.9071552120735541 a63.1616984568197,63.1616984568197 0 0,0 0.014036914149094009,1.087174470069464 l -42.16130802836932 0.1814444839436273" fill="#daff1c" stroke="none" /><path d="M 120.95626037817324 101.35467743843564 l 50.234363634403756 3.2473045200648847 a71.33921211540304,71.33921211540304 0 0,0 -0.08976321363160586,1.2247477327979936 l -50.171023862107816 -4.111525389359648" fill="#32ff2f" stroke="none" /><path d="M 120.89721153311464 102.0752229133903 l 49.527973696858616 4.918435443247575 a70.77159014665006,70.77159014665006 0 0,0 -0.13081858326684712,1.2112176097508611 l -49.43597281209072 -5.770249374883228" fill="#3dff2e" stroke="none" /><path d="M 120.76222939487914 103.15116336523771 l 31.92510348852515 4.8453956765006865 a53.290712163327896,53.290712163327896 0 0,0 -0.1454538157161668,0.9057410493110802 l -31.836967918447694 -5.394215955504971" fill="#ff3004" stroke="none" /><path d="M 120.64145759157962 103.86396538481128 l 33.52002827589436 6.2747617691876085 a55.1022716380715,55.1022716380715 0 0,0 -0.18254613005018078,0.9307987843323413 l -33.407052212868514 -6.8508242805878945" fill="#ff6008" stroke="none" /><path d="M 120.49622156327973 104.57218783832717 l 47.89196676599572 10.683484627886482 a70.0691076392217,70.0691076392217 0 0,0 -0.27273377162767426,1.1749299500660506 l -47.700972428437495 -11.5062832353011" fill="#4aff2c" stroke="none" /><path d="M 120.23288151984713 105.62410040840565 l 33.1810465360629 9.223280292119682 a55.43908751078308,55.43908751078308 0 0,0 -0.2634871018043828,0.917233167641375 l -33.01736679737242 -9.79307093526564" fill="#ff6909" stroke="none" /><path d="M 119.79798401119884 107.00284435728193 l 59.393952033596506 21.00853307184577 a84.0,84.0 0 0,0 -0.49390295597909306,1.3590088119754755 l -59.02352481661219 -22.027789680827375" fill="#4dd2ff" stroke="none" /><line stroke="#e1ed5e" stroke-width="0.3" x1="174.80103733775053" x2="179.2010983576182" y1="140.37084112569926" y2="142.7455964860345" /><path d="M 175.68104954172406 140.8457921977663 a86.0,86.0 0 0,1 -30.038265399797805,32.042727171017184" fill="none" id="id77" stroke="none" /><text fill="#e1ed5e" style="font-size:6.75px; font-family:Arial;" text-anchor="middle"><textPath startOffset="22.206326154141568" xlink:href="#id77">May</textPath></text><line stroke="#e1ed5e" stroke-width="0.3" x1="143.8653032363475" x2="146.44561519142675" y1="172.8068346515853" y2="177.08958963109032" /><path d="M 144.38136562736335 173.6633856474863 a86.0,86.0 0 0,1 -40.68145358897372,12.25698825130547" fill="none" id="id78" stroke="none" /><text fill="#e1ed5e" style="font-size:6.75px; font-family:Arial;" text-anchor="middle"><textPath startOffset="21.466115282336833" xlink:href="#id78">June</textPath></text><line stroke="#e1ed5e" stroke-width="0.3" x1="102.19456741930631" x2="102.32365962044197" y1="184.97166512339345" y2="189.96999836594603" /><path d="M 102.22038585953345 185.97133177190398 a86.0,86.0 0 0,1 -42.740103519485714,-10.115201625700543" fill="none" id="id79" stroke="none" /><text fill="#e1ed5e" style="font-size:6.75px; font-family:Arial;" text-anchor="middle"><textPath startOffset="22.20632615414155" xlink:href="#id79">July</textPath></text><line stroke="#e1ed5e" stroke-width="0.3" x1="58.666819895761336" x2="56.23545636021788" y1="174.27360380694188" y2="178.64263932499728" /><path d="M 58.180547188652646 175.14741091055294 a86.0,86.0 0 0,1 -31.652253787137756,-30.449443065178592" fill="none" id="id80" stroke="none" /><text fill="#e1ed5e" style="font-size:6.75px; font-family:Arial;" text-anchor="middle"><textPath startOffset="22.20632615414155" xlink:href="#id80">August</textPath></text><line stroke="#e1ed5e" stroke-width="0.3" x1="26.63291911575756" x2="22.317208475507996" y1="142.92168965132927" y2="145.44649492493687" /><path d="M 25.769776987707644 143.4266507060508 a86.0,86.0 0 0,1 -11.730757126820373,-40.83630448921669" fill="none" id="id81" stroke="none" /><text fill="#e1ed5e" style="font-size:6.75px; font-family:Arial;" text-anchor="middle"><textPath startOffset="21.46611528233685" xlink:href="#id81">September</textPath></text><line stroke="#e1ed5e" stroke-width="0.3" x1="15.007084014347285" x2="10.007500721073583" y1="101.09737516637583" y2="101.16192664675087" /><path d="M 14.007167355692545 101.11028546245083 a86.0,86.0 0 0,1 10.666146001902534,-42.60595125391555" fill="none" id="id82" stroke="none" /><text fill="#e1ed5e" style="font-size:6.75px; font-family:Arial;" text-anchor="middle"><textPath startOffset="22.20632615414155" xlink:href="#id82">October</textPath></text><line stroke="#e1ed5e" stroke-width="0.3" x1="26.266209847984243" x2="21.928928074336255" y1="57.711370442889674" y2="55.22380399835377" /><path d="M 25.398753493254645 57.213857153982495 a86.0,86.0 0 0,1 29.58750427330803,-30.492523968695096" fill="none" id="id83" stroke="none" /><text fill="#e1ed5e" style="font-size:6.75px; font-family:Arial;" text-anchor="middle"><textPath startOffset="21.46611528233685" xlink:href="#id83">November</textPath></text><line stroke="#e1ed5e" stroke-width="0.3" x1="56.762969772571076" x2="54.21961505331055" y1="26.818313649435495" y2="22.513508569990535" /><path d="M 56.25429882871897 25.957352633546506 a86.0,86.0 0 0,1 42.265352541879196,-11.944610805530505" fill="none" id="id84" stroke="none" /><text fill="#e1ed5e" style="font-size:6.75px; font-family:Arial;" text-anchor="middle"><textPath startOffset="22.20632615414155" xlink:href="#id84">December</textPath></text></svg>